Patient4_TMGait_0pt5_01_right_02_GRF.mot
version=1
nRows=78
nColumns=19
inDegrees=no
endheader
time	F1x	F1y	F1z	M1x	M1y	M1z	F2x	F2y	F2z	M2x	M2y	M2z	EC1x	EC1y	EC1z	EC2x	EC2y	EC2z
1.91	2.8012	744.6851	49.7883	-286.9642	-34.091	562.9898	-0.75485	-8.4114	-0.44798	-0.92823	-1.4449	-15.0085	-0.0592	0.0182	-0.0073	-0.0462	0.0165	0.9585
1.9231	4.7808	750.09	48.8191	-288.0551	-32.5614	565.6593	-0.63724	-5.1288	-0.20078	-0.44714	-1.0587	-9.6096	-0.0592	0.0182	-0.0073	-0.0462	0.0165	0.9585
1.9363	6.4542	756.3857	48.1979	-289.361	-31.3141	568.7126	-0.54018	-2.3267	-0.059766	-0.012718	-0.63531	-5.0187	-0.0592	0.0182	-0.0073	-0.0462	0.0165	0.9585
1.9494	7.7512	762.9674	48.0263	-290.6829	-30.4492	571.763	-0.47746	-0.16562	-0.0032012	0.34206	-0.24261	-1.4995	-0.0592	0.0182	-0.0073	-0.0462	0.0165	0.9585
1.9626	8.7425	769.1693	48.3023	-291.7862	-29.9552	574.3653	-0.45042	1.3578	0.00040714	0.61006	0.077882	0.95591	-0.0592	0.0182	-0.0073	-0.0462	0.0165	0.9585
1.9757	9.583	774.402	48.9558	-292.4641	-29.7466	576.1038	-0.45322	2.328	-0.024853	0.79555	0.31484	2.4946	-0.0592	0.0182	-0.0073	-0.0462	0.0165	0.9585
1.9889	10.4753	778.2276	49.904	-292.5705	-29.7111	576.6436	-0.48676	2.8584	-0.060956	0.90726	0.47696	3.3147	-0.0592	0.0182	-0.0073	-0.0462	0.0165	0.9585
2.002	11.6039	780.4347	51.0553	-292.0461	-29.7308	575.8106	-0.54164	3.0476	-0.092533	0.94995	0.57565	3.5914	-0.0592	0.0182	-0.0073	-0.0462	0.0165	0.9585
2.0151	13.0927	781.0449	52.3266	-290.9225	-29.714	573.6086	-0.61745	2.9603	-0.11254	0.92049	0.62942	3.4735	-0.0592	0.0182	-0.0073	-0.0462	0.0165	0.9585
2.0283	14.9983	780.2993	53.627	-289.3169	-29.5846	570.2156	-0.70646	2.613	-0.11468	0.80575	0.64883	3.0509	-0.0592	0.0182	-0.0073	-0.0462	0.0165	0.9585
2.0414	17.2932	778.5485	54.8774	-287.3846	-29.2982	565.9054	-0.7974	1.991	-0.099223	0.58603	0.64122	2.3606	-0.0592	0.0182	-0.0073	-0.0462	0.0165	0.9585
2.0546	19.9038	776.1196	56.0172	-285.2654	-28.8376	560.9454	-0.87088	1.0532	-0.059	0.23718	0.59953	1.3939	-0.0592	0.0182	-0.0073	-0.0462	0.0165	0.9585
2.0677	22.7155	773.2423	57.0111	-283.0554	-28.2136	555.5479	-0.89321	-0.24162	0.0048056	-0.25984	0.5168	0.1331	-0.0592	0.0182	-0.0073	-0.0462	0.0165	0.9585
2.0809	25.6014	770.0091	57.8553	-280.7908	-27.4644	549.8374	-0.81793	-1.8884	0.090836	-0.90469	0.37982	-1.4004	-0.0592	0.0182	-0.0073	-0.0462	0.0165	0.9585
2.094	28.4288	766.4244	58.5817	-278.4652	-26.6575	543.8878	-0.57814	-3.8033	0.19076	-1.6629	0.17237	-3.1298	-0.0592	0.0182	-0.0073	-0.0462	0.0165	0.9585
2.1071	31.0821	762.5051	59.2531	-276.0677	-25.8781	537.7913	-0.10417	-5.7548	0.29497	-2.4402	-0.12448	-4.8511	-0.0592	0.0182	-0.0073	-0.0462	0.0165	0.9585
2.1203	33.4656	758.3568	59.9413	-273.6132	-25.2092	531.6855	0.68102	-7.289	0.38249	-3.0538	-0.51929	-6.1678	-0.0592	0.0182	-0.0073	-0.0462	0.0165	0.9585
2.1334	35.5143	754.1595	60.7136	-271.1466	-24.726	525.7344	1.8275	-7.6612	0.42692	-3.2056	-1.0062	-6.4145	-0.0592	0.0182	-0.0073	-0.0462	0.0165	0.9585
2.1466	37.205	750.1075	61.5976	-268.7275	-24.4634	520.0937	3.3353	-5.7787	0.38245	-2.46	-1.545	-4.6066	-0.0592	0.0182	-0.0073	-0.0462	0.0165	0.9585
2.1597	38.5641	746.2706	62.5883	-266.3805	-24.4179	514.8192	5.1148	-0.2006	0.19649	-0.24253	-2.0508	0.55774	-0.0592	0.0182	-0.0073	-0.0462	0.0165	0.9585
2.1729	39.6995	742.4376	63.6236	-264.0417	-24.5171	509.7384	6.9291	10.795	-0.20446	4.1302	-2.3523	10.6395	-0.0592	0.0182	-0.0073	-0.0462	0.0165	0.9585
2.186	40.7434	738.0309	64.5888	-261.5261	-24.6435	504.4241	8.335	28.9801	-0.89592	11.3626	-2.1957	27.254	-0.0592	0.0182	-0.0073	-0.0462	0.0165	0.9585
2.1991	41.8379	732.058	65.2934	-258.5098	-24.624	498.1726	8.6105	55.7684	-1.9482	22.0165	-1.2294	51.6988	-0.0592	0.0182	-0.0073	-0.0462	0.0165	0.9585
2.2123	43.0634	723.1256	65.4978	-254.532	-24.2797	490.0434	6.8247	91.6083	-3.3978	36.2729	0.94173	84.378	-0.0592	0.0182	-0.0073	-0.0462	0.0165	0.9585
2.2254	44.4143	709.5811	64.924	-249.0413	-23.435	478.9507	2.0896	135.2694	-5.2194	53.6477	4.6243	124.1474	-0.0592	0.0182	-0.0073	-0.0462	0.0165	0.9585
2.2386	45.7876	689.7394	63.3185	-241.4747	-21.9694	463.7955	-5.37	183.7209	-7.3987	72.9223	9.6934	168.2107	-0.0592	0.0182	-0.0073	-0.0462	0.0165	0.9585
2.2517	46.9711	662.2479	60.499	-231.3792	-19.8472	443.7291	-14.1022	232.8649	-10.1348	92.4414	15.7266	212.6845	-0.0592	0.0182	-0.0073	-0.0462	0.0165	0.9585
2.2649	47.6946	626.3769	56.4269	-218.5074	-17.1483	418.3203	-22.6748	279.3638	-13.3987	110.8663	22.09	254.3008	-0.0592	0.0182	-0.0073	-0.0462	0.0165	0.9585
2.278	47.677	582.1758	51.2202	-202.869	-14.0476	387.6593	-30.1862	322.064	-17.0677	127.7299	28.2938	291.8489	-0.0592	0.0182	-0.0073	-0.0462	0.0165	0.9585
2.2911	46.6587	530.4551	45.1354	-184.7264	-10.7924	352.3293	-36.1202	361.3966	-20.8556	143.2133	33.8631	325.6433	-0.0592	0.0182	-0.0073	-0.0462	0.0165	0.9585
2.3043	44.4413	472.6586	38.4996	-164.5568	-7.6472	313.31	-40.2612	398.4894	-24.6078	157.7697	38.5764	356.6944	-0.0592	0.0182	-0.0073	-0.0462	0.0165	0.9585
2.3174	40.902	410.7409	31.6767	-143.0104	-4.8642	271.8938	-42.5112	434.6054	-28.1533	171.9105	42.254	386.1117	-0.0592	0.0182	-0.0073	-0.0462	0.0165	0.9585
2.3306	36.063	346.9922	25.0588	-120.8514	-2.6591	229.5674	-42.9932	470.9305	-31.4764	186.0988	44.9507	414.989	-0.0592	0.0182	-0.0073	-0.0462	0.0165	0.9585
2.3437	30.1074	283.9009	19.0169	-98.9165	-1.1769	187.9194	-42.0147	508.3696	-34.5832	200.6801	46.8166	444.198	-0.0592	0.0182	-0.0073	-0.0462	0.0165	0.9585
2.3569	23.3704	223.9696	13.8399	-78.0599	-0.46684	148.521	-40.0643	547.3351	-37.6697	215.7913	48.2463	474.2546	-0.0592	0.0182	-0.0073	-0.0462	0.0165	0.9585
2.37	16.3525	169.5251	9.6647	-59.0904	-0.43755	112.8127	-37.6683	587.6104	-40.84	231.3307	49.5616	505.1336	-0.0592	0.0182	-0.0073	-0.0462	0.0165	0.9585
2.3831	9.6627	122.4179	6.4983	-42.6628	-0.88747	81.9316	-35.3437	628.3381	-44.229	246.953	51.1017	536.2493	-0.0592	0.0182	-0.0073	-0.0462	0.0165	0.9585
2.3963	3.8957	83.6802	4.2308	-29.1521	-1.5447	56.4825	-33.5186	668.1588	-47.8044	262.1356	53.0083	566.5753	-0.0592	0.0182	-0.0073	-0.0462	0.0165	0.9585
2.4094	-0.55049	53.4051	2.6944	-18.599	-2.1706	36.5009	-32.3979	705.4728	-51.4448	276.2827	55.2672	594.837	-0.0592	0.0182	-0.0073	-0.0462	0.0165	0.9585
2.4226	-3.4966	30.9513	1.6899	-10.783	-2.5791	21.5771	-31.9593	738.7813	-54.8033	288.8541	57.577	619.8134	-0.0592	0.0182	-0.0073	-0.0462	0.0165	0.9585
2.4357	-4.9638	15.243	1.0321	-5.3286	-2.664	11.0345	-31.982	766.7718	-57.5176	299.3877	59.5582	640.3905	-0.0592	0.0182	-0.0073	-0.0462	0.0165	0.9585
2.4489	-5.1726	5.0338	0.57504	-1.7958	-2.4144	4.0962	-32.1975	788.3556	-59.2601	307.5009	60.8317	655.6326	-0.0592	0.0182	-0.0073	-0.0462	0.0165	0.9585
2.462	-4.5687	-0.8956	0.25999	0.24656	-1.9568	-0.0035023	-32.3325	802.7099	-59.9155	312.8969	61.1949	664.8132	-0.0592	0.0182	-0.0073	-0.0462	0.0165	0.9585
2.4751	-3.6212	-3.6987	0.065947	1.2054	-1.4516	-1.99	-32.1672	809.4921	-59.5277	315.4465	60.592	667.6087	-0.0592	0.0182	-0.0073	-0.0462	0.0165	0.9585
2.4883	-2.6156	-4.4342	-0.037521	1.4495	-0.98837	-2.558	-31.5608	809.0791	-58.2871	315.2907	59.1225	664.3049	-0.0592	0.0182	-0.0073	-0.0462	0.0165	0.9585
2.5014	-1.7194	-3.9584	-0.078513	1.2776	-0.61087	-2.2817	-30.4237	802.669	-56.3905	312.8868	56.9108	655.8597	-0.0592	0.0182	-0.0073	-0.0462	0.0165	0.9585
2.5146	-1.0085	-2.8983	-0.084512	0.90724	-0.32609	-1.598	-28.7146	792.0935	-54.0566	308.935	54.1235	643.7523	-0.0592	0.0182	-0.0073	-0.0462	0.0165	0.9585
2.5277	-0.49576	-1.673	-0.070322	0.48372	-0.12916	-0.80166	-26.4415	779.4582	-51.471	304.2418	50.9185	629.6919	-0.0592	0.0182	-0.0073	-0.0462	0.0165	0.9585
2.5409	-0.16615	-0.51414	-0.053209	0.086979	-0.0024005	-0.040652	-23.6674	766.7681	-48.8445	299.5692	47.4948	615.32	-0.0592	0.0182	-0.0073	-0.0462	0.0165	0.9585
2.554	0.028892	0.45764	-0.036465	-0.24293	0.068886	0.60241	-20.4838	755.6275	-46.3779	295.521	44.0491	601.9478	-0.0592	0.0182	-0.0073	-0.0462	0.0165	0.9585
2.5671	0.12419	1.2155	-0.033272	-0.49646	0.10903	1.1241	-17.0242	747.1237	-44.2671	292.4979	40.7855	590.4871	-0.0592	0.0182	-0.0073	-0.0462	0.0165	0.9585
2.5803	0.15951	1.7695	-0.040332	-0.67804	0.13013	1.5317	-13.4248	741.8076	-42.6419	290.6939	37.8518	581.432	-0.0592	0.0182	-0.0073	-0.0462	0.0165	0.9585
2.5934	0.15632	2.1565	-0.055473	-0.80292	0.13793	1.8447	-9.8298	739.7646	-41.5838	290.1208	35.357	574.9183	-0.0592	0.0182	-0.0073	-0.0462	0.0165	0.9585
2.6066	0.11827	2.4136	-0.067165	-0.88581	0.12675	2.0746	-6.3758	740.7017	-41.1148	290.6442	33.3616	570.7838	-0.0592	0.0182	-0.0073	-0.0462	0.0165	0.9585
2.6197	0.05275	2.5606	-0.073929	-0.93345	0.099675	2.2118	-3.1839	744.0686	-41.2106	292.0356	31.8904	568.6725	-0.0592	0.0182	-0.0073	-0.0462	0.0165	0.9585
2.6329	-0.048193	2.5984	-0.072111	-0.94209	0.051721	2.2503	-0.35158	749.1572	-41.7986	294.0114	30.9225	568.1066	-0.0592	0.0182	-0.0073	-0.0462	0.0165	0.9585
2.646	-0.16877	2.4882	-0.062477	-0.89546	-0.010974	2.1459	2.083	755.1537	-42.778	296.2539	30.3946	568.4997	-0.0592	0.0182	-0.0073	-0.0462	0.0165	0.9585
2.6591	-0.30716	2.171	-0.044679	-0.76863	-0.085864	1.8544	4.1132	761.1822	-44.0276	298.4244	30.211	569.2194	-0.0592	0.0182	-0.0073	-0.0462	0.0165	0.9585
2.6723	-0.44191	1.5669	-0.019846	-0.53162	-0.16378	1.3071	5.7687	766.3575	-45.4212	300.1842	30.2638	569.6207	-0.0592	0.0182	-0.0073	-0.0462	0.0165	0.9585
2.6854	-0.54576	0.59718	0.0095085	-0.1571	-0.23419	0.44255	7.087	769.898	-46.8395	301.2357	30.4541	569.1471	-0.0592	0.0182	-0.0073	-0.0462	0.0165	0.9585
2.6986	-0.5824	-0.78808	0.037712	0.37347	-0.27822	-0.78641	8.1301	771.2372	-48.1673	301.3685	30.6834	567.3821	-0.0592	0.0182	-0.0073	-0.0462	0.0165	0.9585
2.7117	-0.49914	-2.5745	0.058623	1.0556	-0.26864	-2.3883	8.9718	770.1238	-49.3013	300.4912	30.8557	564.1323	-0.0592	0.0182	-0.0073	-0.0462	0.0165	0.9585
2.7249	-0.22953	-4.6411	0.061558	1.8434	-0.17003	-4.2675	9.6961	766.5676	-50.1945	298.6123	30.9143	559.3747	-0.0592	0.0182	-0.0073	-0.0462	0.0165	0.9585
2.738	0.33036	-6.6969	0.039557	2.6247	0.059919	-6.1744	10.397	760.8126	-50.839	295.8308	30.8246	553.2347	-0.0592	0.0182	-0.0073	-0.0462	0.0165	0.9585
2.7511	1.2827	-8.2034	-0.016262	3.1911	0.47149	-7.6273	11.2027	753.3093	-51.2564	292.3236	30.5605	545.9723	-0.0592	0.0182	-0.0073	-0.0462	0.0165	0.9585
2.7643	2.735	-8.3092	-0.10846	3.2149	1.1095	-7.864	12.2752	744.6529	-51.4678	288.3257	30.0788	537.9255	-0.0592	0.0182	-0.0073	-0.0462	0.0165	0.9585
2.7774	4.7467	-5.7861	-0.23903	2.226	1.9966	-5.7643	13.759	735.4913	-51.5174	284.0906	29.357	529.477	-0.0592	0.0182	-0.0073	-0.0462	0.0165	0.9585
2.7906	7.2856	0.97002	-0.39709	-0.38743	3.0995	0.12513	15.7724	726.3824	-51.4726	279.8377	28.3966	520.9515	-0.0592	0.0182	-0.0073	-0.0462	0.0165	0.9585
2.8037	10.1343	13.83	-0.54933	-5.3399	4.2943	11.5003	18.3226	717.6344	-51.4159	275.691	27.2431	512.542	-0.0592	0.0182	-0.0073	-0.0462	0.0165	0.9585
2.8169	12.8005	34.6678	-0.63449	-13.3482	5.3276	30.0693	21.3142	709.1238	-51.4029	271.6181	25.9588	504.1742	-0.0592	0.0182	-0.0073	-0.0462	0.0165	0.9585
2.83	14.4259	64.8797	-0.56208	-24.9425	5.7815	57.1289	24.5314	700.2376	-51.4214	267.4075	24.6122	495.4787	-0.0592	0.0182	-0.0073	-0.0462	0.0165	0.9585
2.8431	13.7795	104.7045	-0.20251	-40.2106	5.069	92.973	27.6761	689.9014	-51.3654	262.6794	23.2427	485.7974	-0.0592	0.0182	-0.0073	-0.0462	0.0165	0.9585
2.8563	9.8425	152.7841	0.60573	-58.6272	2.6671	136.4786	30.442	676.7242	-51.0509	256.9403	21.8504	474.2612	-0.0592	0.0182	-0.0073	-0.0462	0.0165	0.9585
2.8694	3.0014	206.2333	2.0847	-79.0601	-1.4676	185.09	32.5461	659.2982	-50.2577	249.6917	20.4049	460.0011	-0.0592	0.0182	-0.0073	-0.0462	0.0165	0.9585
2.8826	-5.3145	260.0676	4.5928	-99.5584	-7.0956	234.2117	33.8012	636.4742	-48.8114	240.5286	18.8699	442.2975	-0.0592	0.0182	-0.0073	-0.0462	0.0165	0.9585
2.8957	-13.5947	307.8492	8.3705	-117.6709	-13.8262	277.7777	34.1247	607.6221	-46.6637	229.2302	17.2571	420.7598	-0.0592	0.0182	-0.0073	-0.0462	0.0165	0.9585
2.9089	-20.5743	345.9165	12.8268	-132.036	-20.603	312.2538	33.5679	572.8974	-43.9021	215.8531	15.615	395.4988	-0.0592	0.0182	-0.0073	-0.0462	0.0165	0.9585
2.922	-25.8985	374.7174	17.3026	-142.8604	-26.6629	338.0051	32.2941	533.2426	-40.7499	200.732	14.0304	367.1437	-0.0592	0.0182	-0.0073	-0.0462	0.0165	0.9585
